<svg width="134" height="35" viewBox="0 0 134 35" fill="none" xmlns="http://www.w3.org/2000/svg">
<path d="M15.45 7.14999V2.89999H2.05V32.1H15.45V27.85C12.705 27.85 10.0724 26.7595 8.13144 24.8185C6.19044 22.8775 5.1 20.245 5.1 17.5C5.1 14.755 6.19044 12.1224 8.13144 10.1814C10.0724 8.24044 12.705 7.14999 15.45 7.14999Z" fill="white"/>
<path d="M15.45 7.14999V27.85C18.195 27.85 20.8276 26.7595 22.7686 24.8185C24.7096 22.8775 25.8 20.245 25.8 17.5C25.8 14.755 24.7096 12.1224 22.7686 10.1814C20.8276 8.24044 18.195 7.14999 15.45 7.14999Z" fill="white"/>
<path d="M44.6207 13.7902V22.9031C44.6207 26.1183 42.0591 27.4838 39.468 27.4838C38.554 27.5575 37.6372 27.379 36.821 26.9684C36.0046 26.5578 35.3211 25.9313 34.8473 25.1595L37.3399 23.7456C37.5419 24.146 37.8632 24.4762 38.261 24.6925C38.6588 24.9087 39.1142 25.0007 39.5665 24.9562C39.8547 24.991 40.1471 24.963 40.4229 24.8739C40.6987 24.7847 40.951 24.6368 41.1619 24.4406C41.3728 24.2444 41.537 24.0049 41.6427 23.739C41.7484 23.4733 41.793 23.1878 41.7734 22.9031V22.0218C41.4295 22.4318 40.993 22.7572 40.4988 22.9723C40.0045 23.1875 39.4661 23.2865 38.9261 23.2614C37.6196 23.2614 36.3667 22.7512 35.4429 21.8431C34.519 20.9351 34 19.7035 34 18.4193C34 17.135 34.519 15.9035 35.4429 14.9954C36.3667 14.0873 37.6196 13.5771 38.9261 13.5771C39.4661 13.552 40.0045 13.651 40.4988 13.8662C40.993 14.0814 41.4295 14.4068 41.7734 14.8167V13.8483L44.6207 13.7902ZM41.7734 18.3902C41.793 17.9269 41.6712 17.4684 41.4236 17.0736C41.1761 16.6789 40.8141 16.366 40.384 16.1751C39.9541 15.9842 39.476 15.9242 39.0109 16.0026C38.546 16.0811 38.1155 16.2944 37.7749 16.6153C37.4343 16.9361 37.1991 17.3498 37.0996 17.8031C37.0001 18.2565 37.0408 18.7286 37.2165 19.1589C37.3922 19.5893 37.6949 19.9582 38.0855 20.2181C38.4763 20.478 38.9371 20.6172 39.4089 20.6176C39.7168 20.6394 40.0258 20.5975 40.3161 20.4946C40.6064 20.3917 40.8716 20.23 41.0944 20.0201C41.3172 19.8102 41.4928 19.5567 41.6098 19.2759C41.7267 18.9952 41.7825 18.6934 41.7734 18.3902Z" fill="white"/>
<path d="M46.2853 11.2238C46.2853 10.8829 46.3881 10.5496 46.5808 10.2661C46.7735 9.98263 47.0474 9.76169 47.3678 9.63122C47.6883 9.50075 48.0409 9.46661 48.3811 9.53312C48.7212 9.59963 49.0337 9.76381 49.2791 10.0049C49.5243 10.246 49.6913 10.5532 49.759 10.8875C49.8267 11.2219 49.7919 11.5685 49.6592 11.8835C49.5265 12.1984 49.3016 12.4677 49.0133 12.6571C48.7249 12.8465 48.3859 12.9476 48.039 12.9476C47.5754 12.9426 47.1324 12.7594 46.8046 12.4372C46.4768 12.115 46.2904 11.6795 46.2853 11.2238ZM46.571 13.7902H49.5267V23.3776H46.571V13.7902Z" fill="white"/>
<path d="M75.2315 20.4766C75.2315 22.6846 73.2611 23.624 71.1724 23.624C70.3205 23.6993 69.4652 23.5218 68.717 23.1144C67.9688 22.7069 67.3621 22.0883 66.9753 21.3385L69.5172 19.9245C69.6179 20.2701 69.8362 20.5712 70.1357 20.7774C70.4352 20.9837 70.7977 21.0826 71.1625 21.0576C71.862 21.0576 72.2167 20.8446 72.2167 20.4572C72.2167 19.4016 67.4187 19.9633 67.4187 16.6416C67.4187 14.5497 69.2118 13.5038 71.2414 13.5038C72.0128 13.4698 72.7793 13.6419 73.4592 14.0017C74.1392 14.3615 74.7074 14.8956 75.1034 15.5472L72.5615 16.8643C72.4492 16.6144 72.2658 16.402 72.0333 16.2524C71.8007 16.1029 71.529 16.0228 71.2512 16.0218C70.7389 16.0218 70.4335 16.2155 70.4335 16.5544C70.4335 17.6584 75.2315 16.9321 75.2315 20.4766Z" fill="white"/>
<path d="M86.2168 13.4996V23.0871H83.2611V22.1865C82.9252 22.5852 82.4986 22.9006 82.0168 23.1075C81.534 23.3145 81.0089 23.407 80.4828 23.3776C78.5124 23.3776 76.8276 21.9928 76.8276 19.4071V13.4996H79.7833V18.9713C79.7597 19.2 79.7872 19.431 79.8641 19.6483C79.9409 19.8655 80.0641 20.0638 80.2257 20.2296C80.3882 20.3953 80.5853 20.5245 80.803 20.6083C81.0207 20.692 81.2542 20.7282 81.4877 20.7144C82.5518 20.7144 83.3005 20.0946 83.3005 18.7776V13.4996H86.2168Z" fill="white"/>
<path d="M65.4972 17.4896V23.3776H62.5415V17.7414C62.5415 16.7729 62.0785 16.1725 61.1425 16.1725C60.2065 16.1725 59.6154 16.8407 59.6154 17.9738V23.3776H56.6597V17.7414C56.6597 16.7729 56.1967 16.1725 55.2607 16.1725C54.3248 16.1725 53.7336 16.8407 53.7336 17.9738V23.3776H50.778V13.7902H53.7336V14.6714C54.04 14.2821 54.439 13.9738 54.8972 13.7743C55.3543 13.5748 55.8558 13.4903 56.3543 13.5287C56.8538 13.503 57.3523 13.6057 57.7996 13.8264C58.2469 14.0471 58.6282 14.3784 58.906 14.7876C59.2312 14.36 59.6607 14.0203 60.1553 13.8001C60.6489 13.5799 61.1927 13.4866 61.7336 13.5287C64.039 13.5287 65.4972 15.0975 65.4972 17.4896Z" fill="white"/>
<path d="M89.8325 15.8239C91.0296 15.8239 92 14.87 92 13.6933C92 12.5167 91.0296 11.5628 89.8325 11.5628C88.6355 11.5628 87.665 12.5167 87.665 13.6933C87.665 14.87 88.6355 15.8239 89.8325 15.8239Z" fill="white"/>
</svg>
