<svg xmlns="http://www.w3.org/2000/svg" width="24" height="25" viewBox="0 0 24 25" fill="none">
  <path d="M10.4067 6.06035L4 12.5004L10.4067 18.9404C10.4645 19.0163 10.538 19.079 10.6222 19.1241C10.7064 19.1692 10.7993 19.1957 10.8946 19.2018C10.9899 19.2079 11.0854 19.1934 11.1747 19.1593C11.2639 19.1253 11.3448 19.0725 11.4118 19.0045C11.4789 18.9365 11.5305 18.8548 11.5633 18.7651C11.596 18.6754 11.6091 18.5797 11.6017 18.4845C11.5943 18.3893 11.5664 18.2968 11.5201 18.2133C11.4738 18.1297 11.4101 18.0571 11.3333 18.0004L6.54 13.167L19.2933 13.167C19.4701 13.167 19.6397 13.0968 19.7647 12.9718C19.8898 12.8467 19.96 12.6772 19.96 12.5004C19.96 12.3235 19.8898 12.154 19.7647 12.0289C19.6397 11.9039 19.4701 11.8337 19.2933 11.8337L6.54 11.8337L11.3333 7.00035C11.458 6.87482 11.5277 6.70491 11.527 6.528C11.5264 6.35109 11.4555 6.18167 11.33 6.05702C11.2045 5.93237 11.0346 5.86269 10.8576 5.86332C10.6807 5.86394 10.5113 5.93482 10.3867 6.06035L10.4067 6.06035Z" fill="black"/>
</svg>