<svg xmlns="http://www.w3.org/2000/svg" width="24" height="25" viewBox="0 0 24 25" fill="none">
  <path d="M13.5933 18.9396L20 12.4996L13.5933 6.05965C13.5355 5.98367 13.462 5.921 13.3778 5.8759C13.2936 5.8308 13.2007 5.80431 13.1054 5.79823C13.0101 5.79215 12.9146 5.80661 12.8253 5.84065C12.7361 5.87469 12.6552 5.9275 12.5882 5.99552C12.5211 6.06353 12.4695 6.14515 12.4367 6.23486C12.404 6.32457 12.3909 6.42028 12.3983 6.51549C12.4057 6.6107 12.4336 6.70321 12.4799 6.78674C12.5262 6.87027 12.5899 6.94288 12.6667 6.99965L17.46 11.833L4.70667 11.833C4.52986 11.833 4.36029 11.9032 4.23526 12.0282C4.11024 12.1533 4.04 12.3228 4.04 12.4996C4.04 12.6765 4.11024 12.846 4.23526 12.9711C4.36029 13.0961 4.52986 13.1663 4.70667 13.1663L17.46 13.1663L12.6667 17.9996C12.542 18.1252 12.4723 18.2951 12.473 18.472C12.4736 18.6489 12.5445 18.8183 12.67 18.943C12.7955 19.0676 12.9654 19.1373 13.1424 19.1367C13.3193 19.1361 13.4887 19.0652 13.6133 18.9396L13.5933 18.9396Z" fill="black"/>
</svg>