<svg xmlns="http://www.w3.org/2000/svg" width="19" height="19" viewBox="0 0 19 19" fill="none">
  <path d="M8.54894 0.927052C8.8483 0.00574112 10.1517 0.00573993 10.4511 0.927051L11.9697 5.60081C12.1035 6.01284 12.4875 6.2918 12.9207 6.2918H17.835C18.8037 6.2918 19.2065 7.53141 18.4228 8.10081L14.447 10.9894C14.0966 11.244 13.9499 11.6954 14.0838 12.1074L15.6024 16.7812C15.9017 17.7025 14.8472 18.4686 14.0635 17.8992L10.0878 15.0106C9.7373 14.756 9.2627 14.756 8.91221 15.0106L4.93648 17.8992C4.15276 18.4686 3.09828 17.7025 3.39763 16.7812L4.91623 12.1074C5.05011 11.6954 4.90345 11.244 4.55296 10.9894L0.577221 8.10081C-0.206493 7.53141 0.196283 6.2918 1.16501 6.2918H6.07929C6.51252 6.2918 6.89647 6.01284 7.03035 5.60081L8.54894 0.927052Z" fill="#F7BA33"/>
</svg>