<svg xmlns="http://www.w3.org/2000/svg" width="29" height="30" viewBox="0 0 29 30" fill="none">
  <g clip-path="url(#clip0_1_90)">
    <g opacity="0.4" filter="url(#filter0_f_1_90)">
      <path d="M14.5 15.8968C16.4489 15.8968 18.1706 16.3631 19.5696 16.9729C20.8609 17.5468 21.6739 18.8381 21.6739 20.237V22.174H7.32607V20.249C7.32607 18.8381 8.13912 17.5468 9.43042 16.9849C10.8293 16.3631 12.5511 15.8968 14.5 15.8968ZM4.93477 16.1957C6.24999 16.1957 7.32607 15.1196 7.32607 13.8044C7.32607 12.4892 6.24999 11.4131 4.93477 11.4131C3.61955 11.4131 2.54347 12.4892 2.54347 13.8044C2.54347 15.1196 3.61955 16.1957 4.93477 16.1957ZM6.28586 17.511C5.84347 17.4392 5.40107 17.3914 4.93477 17.3914C3.75107 17.3914 2.62716 17.6425 1.61086 18.0849C1.17769 18.27 0.808482 18.5784 0.549139 18.9717C0.289795 19.3649 0.15175 19.8257 0.152162 20.2968V22.174H5.5326V20.249C5.5326 19.2566 5.8076 18.324 6.28586 17.511ZM24.0652 16.1957C25.3804 16.1957 26.4565 15.1196 26.4565 13.8044C26.4565 12.4892 25.3804 11.4131 24.0652 11.4131C22.75 11.4131 21.6739 12.4892 21.6739 13.8044C21.6739 15.1196 22.75 16.1957 24.0652 16.1957ZM28.8478 20.2968C28.8478 19.3283 28.2739 18.4675 27.3891 18.0849C26.3407 17.6274 25.2091 17.3913 24.0652 17.3914C23.5989 17.3914 23.1565 17.4392 22.7141 17.511C23.1924 18.324 23.4674 19.2566 23.4674 20.249V22.174H28.8478V20.2968ZM14.5 7.82617C16.4848 7.82617 18.0869 9.42835 18.0869 11.4131C18.0869 13.3979 16.4848 15.0001 14.5 15.0001C12.5152 15.0001 10.913 13.3979 10.913 11.4131C10.913 9.42835 12.5152 7.82617 14.5 7.82617Z" fill="#D7FB00"/>
    </g>
    <path d="M14.5 15.8968C16.4489 15.8968 18.1706 16.3631 19.5696 16.9729C20.8609 17.5468 21.6739 18.8381 21.6739 20.237V22.174H7.32607V20.249C7.32607 18.8381 8.13912 17.5468 9.43042 16.9849C10.8293 16.3631 12.5511 15.8968 14.5 15.8968ZM4.93477 16.1957C6.24999 16.1957 7.32607 15.1196 7.32607 13.8044C7.32607 12.4892 6.24999 11.4131 4.93477 11.4131C3.61955 11.4131 2.54347 12.4892 2.54347 13.8044C2.54347 15.1196 3.61955 16.1957 4.93477 16.1957ZM6.28586 17.511C5.84347 17.4392 5.40107 17.3914 4.93477 17.3914C3.75107 17.3914 2.62716 17.6425 1.61086 18.0849C1.17769 18.27 0.808482 18.5784 0.549139 18.9717C0.289795 19.3649 0.15175 19.8257 0.152162 20.2968V22.174H5.5326V20.249C5.5326 19.2566 5.8076 18.324 6.28586 17.511ZM24.0652 16.1957C25.3804 16.1957 26.4565 15.1196 26.4565 13.8044C26.4565 12.4892 25.3804 11.4131 24.0652 11.4131C22.75 11.4131 21.6739 12.4892 21.6739 13.8044C21.6739 15.1196 22.75 16.1957 24.0652 16.1957ZM28.8478 20.2968C28.8478 19.3283 28.2739 18.4675 27.3891 18.0849C26.3407 17.6274 25.2091 17.3913 24.0652 17.3914C23.5989 17.3914 23.1565 17.4392 22.7141 17.511C23.1924 18.324 23.4674 19.2566 23.4674 20.249V22.174H28.8478V20.2968ZM14.5 7.82617C16.4848 7.82617 18.0869 9.42835 18.0869 11.4131C18.0869 13.3979 16.4848 15.0001 14.5 15.0001C12.5152 15.0001 10.913 13.3979 10.913 11.4131C10.913 9.42835 12.5152 7.82617 14.5 7.82617Z" fill="#D7FB00"/>
  </g>
  <defs>
    <filter id="filter0_f_1_90" x="-3.4348" y="4.23922" width="35.8696" height="21.5217" filterUnits="userSpaceOnUse" color-interpolation-filters="sRGB">
      <feFlood flood-opacity="0" result="BackgroundImageFix"/>
      <feBlend mode="normal" in="SourceGraphic" in2="BackgroundImageFix" result="shape"/>
      <feGaussianBlur stdDeviation="1.79348" result="effect1_foregroundBlur_1_90"/>
    </filter>
    <clipPath id="clip0_1_90">
      <rect width="28.6957" height="28.6957" fill="white" transform="translate(0.152176 0.652222)"/>
    </clipPath>
  </defs>
</svg>