<svg xmlns="http://www.w3.org/2000/svg" width="25" height="24" viewBox="0 0 25 24" fill="none">
  <g clip-path="url(#clip0_1_98)">
    <g opacity="0.4" filter="url(#filter0_f_1_98)">
      <path d="M21.07 14.86L22.5 13.43L21.07 12L17.5 15.57L8.93 7L12.5 3.43L11.07 2L9.64 3.43L8.21 2L6.07 4.14L4.64 2.71L3.21 4.14L4.64 5.57L2.5 7.71L3.93 9.14L2.5 10.57L3.93 12L7.5 8.43L16.07 17L12.5 20.57L13.93 22L15.36 20.57L16.79 22L18.93 19.86L20.36 21.29L21.79 19.86L20.36 18.43L22.5 16.29L21.07 14.86Z" fill="#D7FB00"/>
    </g>
    <path d="M21.07 14.86L22.5 13.43L21.07 12L17.5 15.57L8.93 7L12.5 3.43L11.07 2L9.64 3.43L8.21 2L6.07 4.14L4.64 2.71L3.21 4.14L4.64 5.57L2.5 7.71L3.93 9.14L2.5 10.57L3.93 12L7.5 8.43L16.07 17L12.5 20.57L13.93 22L15.36 20.57L16.79 22L18.93 19.86L20.36 21.29L21.79 19.86L20.36 18.43L22.5 16.29L21.07 14.86Z" fill="#D7FB00"/>
  </g>
  <defs>
    <filter id="filter0_f_1_98" x="-6.3" y="-6.8" width="37.6" height="37.6" filterUnits="userSpaceOnUse" color-interpolation-filters="sRGB">
      <feFlood flood-opacity="0" result="BackgroundImageFix"/>
      <feBlend mode="normal" in="SourceGraphic" in2="BackgroundImageFix" result="shape"/>
      <feGaussianBlur stdDeviation="4.4" result="effect1_foregroundBlur_1_98"/>
    </filter>
    <clipPath id="clip0_1_98">
      <rect width="24" height="24" fill="white" transform="translate(0.5)"/>
    </clipPath>
  </defs>
</svg>