<svg width="136" height="38" viewBox="0 0 136 38" fill="none" xmlns="http://www.w3.org/2000/svg">
<path opacity="0.25" fill-rule="evenodd" clip-rule="evenodd" d="M118.5 36.5C128.165 36.5 136 28.665 136 19C136 9.33502 128.165 1.5 118.5 1.5C108.835 1.5 101 9.33502 101 19C101 28.665 108.835 36.5 118.5 36.5Z" stroke="white" stroke-width="1.5"/>
<path d="M124.22 15.7647C124.139 15.6729 124.008 15.6498 123.901 15.7064C123.834 15.7416 123.708 15.7878 123.559 15.8334C123.747 15.5762 123.899 15.2882 123.965 15.0293C123.994 14.9177 123.952 14.8001 123.86 14.7336C123.768 14.6677 123.646 14.6677 123.554 14.7336C123.409 14.8375 122.71 15.1497 122.268 15.2508C121.27 14.3511 120.107 14.2577 118.899 14.9831C117.917 15.5729 117.703 16.7721 117.745 17.5031C115.497 17.2805 114.1 16.0593 113.313 15.0485C113.258 14.9776 113.169 14.9403 113.086 14.9458C112.999 14.9524 112.919 15.0024 112.875 15.0799C112.503 15.7257 112.4 16.4396 112.577 17.1447C112.675 17.5295 112.845 17.8686 113.042 18.1434C112.947 18.0956 112.856 18.0357 112.77 17.9642C112.691 17.8972 112.58 17.8845 112.487 17.929C112.394 17.9747 112.334 18.0714 112.334 18.1775C112.334 19.3882 113.071 20.1962 113.758 20.6183C113.647 20.6045 113.531 20.5792 113.414 20.5424C113.314 20.5111 113.205 20.5424 113.135 20.6238C113.066 20.7046 113.049 20.82 113.093 20.9184C113.479 21.7972 114.211 22.4017 115.117 22.621C114.326 23.0986 113.267 23.3328 112.298 23.2179C112.172 23.1998 112.053 23.2817 112.013 23.4059C111.974 23.5301 112.025 23.6664 112.136 23.7301C113.607 24.5793 114.936 24.8827 116.085 24.8827C117.757 24.8827 119.047 24.2407 119.833 23.7038C121.95 22.2583 123.27 19.663 123.086 17.341C123.426 17.0832 123.933 16.6072 124.248 16.0955C124.313 15.9922 124.301 15.8559 124.22 15.7647Z" fill="white"/>
<path opacity="0.25" fill-rule="evenodd" clip-rule="evenodd" d="M68.5 36.5C78.165 36.5 86 28.665 86 19C86 9.33502 78.165 1.5 68.5 1.5C58.835 1.5 51 9.33502 51 19C51 28.665 58.835 36.5 68.5 36.5Z" stroke="white" stroke-width="1.5"/>
<path d="M70.0932 14.5205H71.7016C71.8495 14.5205 71.9696 14.4074 71.9696 14.2679V12.7524C71.9696 12.6129 71.8495 12.4998 71.7016 12.4998H70.0932C68.4677 12.4998 67.1445 13.7461 67.1445 15.2783V17.0465H65.2681C65.1201 17.0465 65 17.1597 65 17.2991V18.8147C65 18.9541 65.1201 19.0673 65.2681 19.0673H67.1445V24.3719C67.1445 24.5113 67.2646 24.6245 67.4126 24.6245H69.0209C69.1689 24.6245 69.289 24.5113 69.289 24.3719V19.0673H71.1655C71.2807 19.0673 71.3831 18.9976 71.4201 18.8945L71.9562 17.3789C71.9836 17.3021 71.9696 17.2173 71.9192 17.1511C71.8683 17.0854 71.7879 17.0465 71.7016 17.0465H69.289V15.2783C69.289 14.8605 69.6498 14.5205 70.0932 14.5205Z" fill="white"/>
<path opacity="0.25" fill-rule="evenodd" clip-rule="evenodd" d="M18.5 36.5C28.165 36.5 36 28.665 36 19C36 9.33502 28.165 1.5 18.5 1.5C8.83502 1.5 1 9.33502 1 19C1 28.665 8.83502 36.5 18.5 36.5Z" stroke="white" stroke-width="1.5"/>
<path d="M14.4837 15.4671C15.303 15.4671 15.9672 14.8029 15.9672 13.9835C15.9672 13.1642 15.303 12.5 14.4837 12.5C13.6643 12.5 13.0001 13.1642 13.0001 13.9835C13.0001 14.8029 13.6643 15.4671 14.4837 15.4671Z" fill="white"/>
<path d="M15.7198 16.458H13.2473C13.1108 16.458 13 16.5688 13 16.7053V24.123C13 24.2595 13.1108 24.3703 13.2473 24.3703H15.7198C15.8563 24.3703 15.9671 24.2595 15.9671 24.123V16.7053C15.9671 16.5688 15.8563 16.458 15.7198 16.458Z" fill="white"/>
<path d="M23.088 16.0466C22.0313 15.6847 20.7094 16.0026 19.9167 16.5728C19.8895 16.4665 19.7926 16.3874 19.6774 16.3874H17.2048C17.0683 16.3874 16.9575 16.4981 16.9575 16.6346V24.0524C16.9575 24.1889 17.0683 24.2996 17.2048 24.2996H19.6774C19.8138 24.2996 19.9246 24.1889 19.9246 24.0524V18.7215C20.3242 18.3773 20.839 18.2675 21.2603 18.4465C21.6688 18.6191 21.9027 19.0404 21.9027 19.6017V24.0524C21.9027 24.1889 22.0135 24.2996 22.1499 24.2996H24.6225C24.759 24.2996 24.8698 24.1889 24.8698 24.0524V19.1037C24.8416 17.0718 23.8857 16.3196 23.088 16.0466Z" fill="white"/>
</svg>
